<svg width="126" height="79" viewBox="0 0 126 79" fill="none" xmlns="http://www.w3.org/2000/svg">
<path d="M13.25 6.6C14.306 6.6 15.2447 6.798 16.066 7.194C16.8873 7.59 17.5767 8.14733 18.134 8.866C18.706 9.57 19.1313 10.3913 19.41 11.33C19.7033 12.254 19.85 13.244 19.85 14.3C19.85 15.7227 19.5933 17.0207 19.08 18.194C18.5667 19.3527 17.8187 20.2767 16.836 20.966C15.868 21.6553 14.6727 22 13.25 22H7.992C7.61067 22 7.288 21.8753 7.024 21.626C6.77467 21.362 6.65 21.0393 6.65 20.658V7.942C6.65 7.56067 6.77467 7.24533 7.024 6.996C7.288 6.732 7.61067 6.6 7.992 6.6H13.25ZM13.03 19.47C13.954 19.47 14.7093 19.2353 15.296 18.766C15.8827 18.282 16.308 17.6513 16.572 16.874C16.8507 16.082 16.99 15.224 16.99 14.3C16.99 13.6107 16.9093 12.958 16.748 12.342C16.6013 11.7113 16.3667 11.1613 16.044 10.692C15.7213 10.208 15.3107 9.82667 14.812 9.548C14.3133 9.26933 13.7193 9.13 13.03 9.13H9.18L9.4 8.932V19.712L9.268 19.47H13.03ZM27.8724 22.22C26.6258 22.22 25.5404 21.9633 24.6164 21.45C23.7071 20.922 23.0031 20.2107 22.5044 19.316C22.0204 18.4213 21.7784 17.4093 21.7784 16.28C21.7784 14.96 22.0424 13.838 22.5704 12.914C23.1131 11.9753 23.8171 11.2567 24.6824 10.758C25.5478 10.2593 26.4644 10.01 27.4324 10.01C28.1804 10.01 28.8844 10.164 29.5444 10.472C30.2191 10.78 30.8131 11.2053 31.3264 11.748C31.8398 12.276 32.2431 12.892 32.5364 13.596C32.8444 14.3 32.9984 15.048 32.9984 15.84C32.9838 16.192 32.8444 16.478 32.5804 16.698C32.3164 16.918 32.0084 17.028 31.6564 17.028H23.2524L22.5924 14.828H30.6664L30.1824 15.268V14.674C30.1531 14.2487 29.9991 13.8673 29.7204 13.53C29.4564 13.1927 29.1191 12.9287 28.7084 12.738C28.3124 12.5327 27.8871 12.43 27.4324 12.43C26.9924 12.43 26.5818 12.4887 26.2004 12.606C25.8191 12.7233 25.4891 12.9213 25.2104 13.2C24.9318 13.4787 24.7118 13.8527 24.5504 14.322C24.3891 14.7913 24.3084 15.3853 24.3084 16.104C24.3084 16.896 24.4698 17.5707 24.7924 18.128C25.1298 18.6707 25.5551 19.0887 26.0684 19.382C26.5964 19.6607 27.1538 19.8 27.7404 19.8C28.2831 19.8 28.7158 19.756 29.0384 19.668C29.3611 19.58 29.6178 19.4773 29.8084 19.36C30.0138 19.228 30.1971 19.118 30.3584 19.03C30.6224 18.898 30.8718 18.832 31.1064 18.832C31.4291 18.832 31.6931 18.942 31.8984 19.162C32.1184 19.382 32.2284 19.6387 32.2284 19.932C32.2284 20.328 32.0231 20.6873 31.6124 21.01C31.2311 21.3327 30.6958 21.6187 30.0064 21.868C29.3171 22.1027 28.6058 22.22 27.8724 22.22ZM34.623 20.174C34.4763 19.9687 34.4103 19.7047 34.425 19.382C34.4397 19.0593 34.6303 18.7807 34.997 18.546C35.2317 18.3993 35.481 18.3407 35.745 18.37C36.009 18.3847 36.2657 18.5167 36.515 18.766C36.9403 19.1913 37.3877 19.5213 37.857 19.756C38.3263 19.9907 38.913 20.108 39.617 20.108C39.837 20.0933 40.079 20.064 40.343 20.02C40.607 19.9613 40.8343 19.844 41.025 19.668C41.2303 19.4773 41.333 19.1913 41.333 18.81C41.333 18.4873 41.223 18.2307 41.003 18.04C40.783 17.8493 40.4897 17.688 40.123 17.556C39.771 17.424 39.375 17.2993 38.935 17.182C38.4803 17.05 38.011 16.9033 37.527 16.742C37.0577 16.5807 36.625 16.3753 36.229 16.126C35.833 15.862 35.5103 15.5173 35.261 15.092C35.0117 14.6667 34.887 14.1313 34.887 13.486C34.887 12.7527 35.0923 12.1293 35.503 11.616C35.9137 11.1027 36.4417 10.7067 37.087 10.428C37.747 10.1493 38.4363 10.01 39.155 10.01C39.6097 10.01 40.0863 10.0687 40.585 10.186C41.0837 10.2887 41.5603 10.4647 42.015 10.714C42.4697 10.9487 42.851 11.264 43.159 11.66C43.3203 11.88 43.4157 12.144 43.445 12.452C43.4743 12.76 43.335 13.0387 43.027 13.288C42.807 13.464 42.5503 13.5447 42.257 13.53C41.9637 13.5007 41.7217 13.398 41.531 13.222C41.2817 12.8993 40.9443 12.6427 40.519 12.452C40.1083 12.2613 39.6317 12.166 39.089 12.166C38.869 12.166 38.627 12.1953 38.363 12.254C38.1137 12.298 37.8937 12.408 37.703 12.584C37.5123 12.7453 37.417 13.0093 37.417 13.376C37.417 13.7133 37.527 13.9847 37.747 14.19C37.967 14.3807 38.2603 14.542 38.627 14.674C39.0083 14.7913 39.4117 14.9087 39.837 15.026C40.277 15.1433 40.7243 15.2827 41.179 15.444C41.6337 15.6053 42.0517 15.818 42.433 16.082C42.8143 16.346 43.1223 16.6907 43.357 17.116C43.5917 17.5267 43.709 18.0547 43.709 18.7C43.709 19.448 43.489 20.086 43.049 20.614C42.609 21.142 42.059 21.5453 41.399 21.824C40.739 22.088 40.0643 22.22 39.375 22.22C38.5097 22.22 37.6443 22.0733 36.779 21.78C35.9137 21.472 35.195 20.9367 34.623 20.174ZM48.4043 20.658C48.4043 21.0393 48.2796 21.362 48.0303 21.626C47.7809 21.8753 47.4656 22 47.0843 22C46.7029 22 46.3876 21.8753 46.1383 21.626C45.8889 21.362 45.7643 21.0393 45.7643 20.658V11.572C45.7643 11.1907 45.8889 10.8753 46.1383 10.626C46.3876 10.362 46.7029 10.23 47.0843 10.23C47.4656 10.23 47.7809 10.362 48.0303 10.626C48.2796 10.8753 48.4043 11.1907 48.4043 11.572V20.658ZM47.0623 8.8C46.5636 8.8 46.2116 8.71933 46.0063 8.558C45.8009 8.39667 45.6983 8.11067 45.6983 7.7V7.282C45.6983 6.85667 45.8083 6.57067 46.0283 6.424C46.2629 6.26267 46.6149 6.182 47.0843 6.182C47.5976 6.182 47.9569 6.26267 48.1623 6.424C48.3676 6.58533 48.4703 6.87133 48.4703 7.282V7.7C48.4703 8.12533 48.3603 8.41867 48.1403 8.58C47.9203 8.72667 47.5609 8.8 47.0623 8.8ZM56.0015 10.01C56.6175 10.01 57.1822 10.1053 57.6955 10.296C58.2088 10.4867 58.6488 10.7287 59.0155 11.022C59.3968 11.3153 59.6902 11.616 59.8955 11.924C60.1155 12.2173 60.2255 12.4667 60.2255 12.672L59.6535 12.958V11.352C59.6535 10.9707 59.7782 10.6553 60.0275 10.406C60.2768 10.142 60.5922 10.01 60.9735 10.01C61.3548 10.01 61.6702 10.1347 61.9195 10.384C62.1688 10.6333 62.2935 10.956 62.2935 11.352V21.142C62.2935 22.418 62.0148 23.4373 61.4575 24.2C60.9148 24.9773 60.1962 25.5347 59.3015 25.872C58.4068 26.224 57.4462 26.4 56.4195 26.4C56.1262 26.4 55.7448 26.3633 55.2755 26.29C54.8062 26.2167 54.3588 26.1287 53.9335 26.026C53.5082 25.9233 53.1855 25.828 52.9655 25.74C52.5255 25.5493 52.2175 25.3073 52.0415 25.014C51.8802 24.7353 51.8508 24.4347 51.9535 24.112C52.0855 23.6867 52.2982 23.3933 52.5915 23.232C52.8848 23.0853 53.1928 23.0707 53.5155 23.188C53.6622 23.232 53.9042 23.32 54.2415 23.452C54.5788 23.584 54.9455 23.7013 55.3415 23.804C55.7522 23.9213 56.1115 23.98 56.4195 23.98C57.5195 23.98 58.3335 23.76 58.8615 23.32C59.3895 22.88 59.6535 22.2713 59.6535 21.494V19.58L59.9175 19.778C59.9175 19.9687 59.8148 20.2033 59.6095 20.482C59.4188 20.746 59.1475 21.01 58.7955 21.274C58.4582 21.538 58.0548 21.7653 57.5855 21.956C57.1162 22.132 56.6175 22.22 56.0895 22.22C55.0482 22.22 54.1095 21.9633 53.2735 21.45C52.4375 20.922 51.7775 20.2033 51.2935 19.294C50.8095 18.37 50.5675 17.314 50.5675 16.126C50.5675 14.9233 50.8095 13.8673 51.2935 12.958C51.7775 12.034 52.4302 11.3153 53.2515 10.802C54.0728 10.274 54.9895 10.01 56.0015 10.01ZM56.4195 12.43C55.7595 12.43 55.1802 12.5913 54.6815 12.914C54.1828 13.2367 53.7942 13.6767 53.5155 14.234C53.2368 14.7913 53.0975 15.422 53.0975 16.126C53.0975 16.8153 53.2368 17.4387 53.5155 17.996C53.7942 18.5533 54.1828 18.9933 54.6815 19.316C55.1802 19.6387 55.7595 19.8 56.4195 19.8C57.0942 19.8 57.6808 19.6387 58.1795 19.316C58.6782 18.9933 59.0668 18.5533 59.3455 17.996C59.6242 17.4387 59.7635 16.8153 59.7635 16.126C59.7635 15.422 59.6242 14.7913 59.3455 14.234C59.0668 13.6767 58.6782 13.2367 58.1795 12.914C57.6808 12.5913 57.0942 12.43 56.4195 12.43ZM71.4388 10.01C72.5241 10.01 73.3455 10.2373 73.9028 10.692C74.4748 11.1467 74.8635 11.7553 75.0688 12.518C75.2888 13.266 75.3988 14.102 75.3988 15.026V20.658C75.3988 21.0393 75.2741 21.362 75.0248 21.626C74.7755 21.8753 74.4601 22 74.0788 22C73.6975 22 73.3821 21.8753 73.1328 21.626C72.8835 21.362 72.7588 21.0393 72.7588 20.658V15.026C72.7588 14.542 72.6928 14.1093 72.5608 13.728C72.4435 13.332 72.2235 13.0167 71.9008 12.782C71.5781 12.5473 71.1161 12.43 70.5148 12.43C69.9281 12.43 69.4295 12.5473 69.0188 12.782C68.6228 13.0167 68.3148 13.332 68.0948 13.728C67.8895 14.1093 67.7868 14.542 67.7868 15.026V20.658C67.7868 21.0393 67.6621 21.362 67.4128 21.626C67.1635 21.8753 66.8481 22 66.4668 22C66.0855 22 65.7701 21.8753 65.5208 21.626C65.2715 21.362 65.1468 21.0393 65.1468 20.658V11.572C65.1468 11.1907 65.2715 10.8753 65.5208 10.626C65.7701 10.362 66.0855 10.23 66.4668 10.23C66.8481 10.23 67.1635 10.362 67.4128 10.626C67.6621 10.8753 67.7868 11.1907 67.7868 11.572V12.518L67.4568 12.452C67.5888 12.2027 67.7795 11.9387 68.0288 11.66C68.2781 11.3667 68.5715 11.0953 68.9088 10.846C69.2461 10.5967 69.6275 10.3987 70.0528 10.252C70.4781 10.0907 70.9401 10.01 71.4388 10.01ZM77.5703 20.174C77.4236 19.9687 77.3576 19.7047 77.3723 19.382C77.3869 19.0593 77.5776 18.7807 77.9443 18.546C78.1789 18.3993 78.4283 18.3407 78.6923 18.37C78.9563 18.3847 79.2129 18.5167 79.4623 18.766C79.8876 19.1913 80.3349 19.5213 80.8043 19.756C81.2736 19.9907 81.8603 20.108 82.5643 20.108C82.7843 20.0933 83.0263 20.064 83.2903 20.02C83.5543 19.9613 83.7816 19.844 83.9723 19.668C84.1776 19.4773 84.2803 19.1913 84.2803 18.81C84.2803 18.4873 84.1703 18.2307 83.9503 18.04C83.7303 17.8493 83.4369 17.688 83.0703 17.556C82.7183 17.424 82.3223 17.2993 81.8823 17.182C81.4276 17.05 80.9583 16.9033 80.4743 16.742C80.0049 16.5807 79.5723 16.3753 79.1763 16.126C78.7803 15.862 78.4576 15.5173 78.2083 15.092C77.9589 14.6667 77.8343 14.1313 77.8343 13.486C77.8343 12.7527 78.0396 12.1293 78.4503 11.616C78.8609 11.1027 79.3889 10.7067 80.0343 10.428C80.6943 10.1493 81.3836 10.01 82.1023 10.01C82.5569 10.01 83.0336 10.0687 83.5323 10.186C84.0309 10.2887 84.5076 10.4647 84.9623 10.714C85.4169 10.9487 85.7983 11.264 86.1063 11.66C86.2676 11.88 86.3629 12.144 86.3923 12.452C86.4216 12.76 86.2823 13.0387 85.9743 13.288C85.7543 13.464 85.4976 13.5447 85.2043 13.53C84.9109 13.5007 84.6689 13.398 84.4783 13.222C84.2289 12.8993 83.8916 12.6427 83.4663 12.452C83.0556 12.2613 82.5789 12.166 82.0363 12.166C81.8163 12.166 81.5743 12.1953 81.3103 12.254C81.0609 12.298 80.8409 12.408 80.6503 12.584C80.4596 12.7453 80.3643 13.0093 80.3643 13.376C80.3643 13.7133 80.4743 13.9847 80.6943 14.19C80.9143 14.3807 81.2076 14.542 81.5743 14.674C81.9556 14.7913 82.3589 14.9087 82.7843 15.026C83.2243 15.1433 83.6716 15.2827 84.1263 15.444C84.5809 15.6053 84.9989 15.818 85.3803 16.082C85.7616 16.346 86.0696 16.6907 86.3043 17.116C86.5389 17.5267 86.6563 18.0547 86.6563 18.7C86.6563 19.448 86.4363 20.086 85.9963 20.614C85.5563 21.142 85.0063 21.5453 84.3463 21.824C83.6863 22.088 83.0116 22.22 82.3223 22.22C81.4569 22.22 80.5916 22.0733 79.7263 21.78C78.8609 21.472 78.1423 20.9367 77.5703 20.174ZM102.138 6.6C103.546 6.6 104.594 6.93 105.284 7.59C105.973 8.25 106.318 9.22533 106.318 10.516C106.318 11.2053 106.149 11.814 105.812 12.342C105.474 12.8553 104.976 13.2587 104.316 13.552C103.656 13.8307 102.842 13.97 101.874 13.97L101.962 12.98C102.416 12.98 102.937 13.046 103.524 13.178C104.11 13.2953 104.675 13.5153 105.218 13.838C105.775 14.146 106.23 14.586 106.582 15.158C106.948 15.7153 107.132 16.434 107.132 17.314C107.132 18.282 106.97 19.074 106.648 19.69C106.34 20.306 105.929 20.7827 105.416 21.12C104.902 21.4573 104.352 21.692 103.766 21.824C103.179 21.9413 102.614 22 102.072 22H96.5936C96.2122 22 95.8896 21.8753 95.6256 21.626C95.3762 21.362 95.2516 21.0393 95.2516 20.658V7.942C95.2516 7.56067 95.3762 7.24533 95.6256 6.996C95.8896 6.732 96.2122 6.6 96.5936 6.6H102.138ZM101.742 9.196H97.8256L98.1116 8.844V12.826L97.8476 12.628H101.808C102.233 12.628 102.614 12.4887 102.952 12.21C103.289 11.9313 103.458 11.528 103.458 11C103.458 10.3693 103.296 9.91467 102.974 9.636C102.666 9.34267 102.255 9.196 101.742 9.196ZM101.918 15.224H97.9136L98.1116 15.048V19.69L97.8916 19.47H102.072C102.746 19.47 103.282 19.294 103.678 18.942C104.074 18.5753 104.272 18.0327 104.272 17.314C104.272 16.654 104.14 16.1773 103.876 15.884C103.612 15.5907 103.296 15.4073 102.93 15.334C102.563 15.2607 102.226 15.224 101.918 15.224ZM118.182 10.23C118.563 10.23 118.878 10.362 119.128 10.626C119.377 10.8753 119.502 11.1907 119.502 11.572V20.922C119.502 22.2713 119.245 23.342 118.732 24.134C118.233 24.9407 117.558 25.52 116.708 25.872C115.857 26.224 114.904 26.4 113.848 26.4C113.378 26.4 112.88 26.3633 112.352 26.29C111.824 26.2167 111.391 26.1067 111.054 25.96C110.614 25.7693 110.306 25.5273 110.13 25.234C109.968 24.9553 109.939 24.6547 110.042 24.332C110.174 23.9067 110.386 23.6133 110.68 23.452C110.973 23.3053 111.281 23.2907 111.604 23.408C111.838 23.4813 112.146 23.5913 112.528 23.738C112.909 23.8993 113.349 23.98 113.848 23.98C114.522 23.98 115.08 23.8847 115.52 23.694C115.974 23.518 116.312 23.21 116.532 22.77C116.766 22.3447 116.884 21.758 116.884 21.01V19.536L117.346 20.064C117.096 20.548 116.781 20.9513 116.4 21.274C116.033 21.582 115.593 21.8167 115.08 21.978C114.566 22.1393 113.98 22.22 113.32 22.22C112.542 22.22 111.86 22.044 111.274 21.692C110.702 21.3253 110.254 20.8267 109.932 20.196C109.609 19.5507 109.448 18.8173 109.448 17.996V11.572C109.448 11.1907 109.572 10.8753 109.822 10.626C110.071 10.362 110.386 10.23 110.768 10.23C111.149 10.23 111.464 10.362 111.714 10.626C111.963 10.8753 112.088 11.1907 112.088 11.572V17.204C112.088 18.1573 112.293 18.832 112.704 19.228C113.129 19.6093 113.716 19.8 114.464 19.8C114.977 19.8 115.41 19.7047 115.762 19.514C116.114 19.3087 116.385 19.0153 116.576 18.634C116.766 18.238 116.862 17.7613 116.862 17.204V11.572C116.862 11.1907 116.986 10.8753 117.236 10.626C117.485 10.362 117.8 10.23 118.182 10.23Z" fill="#312A2A"/>
<path d="M6.9 30.95C7.36667 30.95 7.85 31.0833 8.35 31.35C8.88333 31.5833 9.28333 31.9 9.55 32.3L21.7 51L19.2 50.9L31.65 32.3C32.2833 31.4 33.1 30.95 34.1 30.95C34.9 30.95 35.6167 31.2333 36.25 31.8C36.8833 32.3667 37.2 33.1 37.2 34V62.95C37.2 63.8167 36.9167 64.55 36.35 65.15C35.7833 65.7167 35.0333 66 34.1 66C33.1667 66 32.4 65.7167 31.8 65.15C31.2333 64.55 30.95 63.8167 30.95 62.95V39.4L32.9 39.85L22.7 55.4C22.4 55.7667 22.0167 56.0833 21.55 56.35C21.1167 56.6167 20.6667 56.7333 20.2 56.7C19.7667 56.7333 19.3167 56.6167 18.85 56.35C18.4167 56.0833 18.05 55.7667 17.75 55.4L8.2 40.3L9.5 37.65V62.95C9.5 63.8167 9.23333 64.55 8.7 65.15C8.16667 65.7167 7.46667 66 6.6 66C5.76667 66 5.08333 65.7167 4.55 65.15C4.01667 64.55 3.75 63.8167 3.75 62.95V34C3.75 33.1667 4.05 32.45 4.65 31.85C5.28333 31.25 6.03333 30.95 6.9 30.95ZM66.1168 38.75C66.9835 38.75 67.7001 39.0333 68.2668 39.6C68.8335 40.1667 69.1168 40.9 69.1168 41.8V62.95C69.1168 63.8167 68.8335 64.55 68.2668 65.15C67.7001 65.7167 66.9835 66 66.1168 66C65.2501 66 64.5335 65.7167 63.9668 65.15C63.4001 64.55 63.1168 63.8167 63.1168 62.95V60.5L64.2168 60.95C64.2168 61.3833 63.9835 61.9167 63.5168 62.55C63.0501 63.15 62.4168 63.75 61.6168 64.35C60.8168 64.95 59.8668 65.4667 58.7668 65.9C57.7001 66.3 56.5335 66.5 55.2668 66.5C52.9668 66.5 50.8835 65.9167 49.0168 64.75C47.1501 63.55 45.6668 61.9167 44.5668 59.85C43.5001 57.75 42.9668 55.35 42.9668 52.65C42.9668 49.9167 43.5001 47.5167 44.5668 45.45C45.6668 43.35 47.1335 41.7167 48.9668 40.55C50.8001 39.35 52.8335 38.75 55.0668 38.75C56.5001 38.75 57.8168 38.9667 59.0168 39.4C60.2168 39.8333 61.2501 40.3833 62.1168 41.05C63.0168 41.7167 63.7001 42.4 64.1668 43.1C64.6668 43.7667 64.9168 44.3333 64.9168 44.8L63.1168 45.45V41.8C63.1168 40.9333 63.4001 40.2167 63.9668 39.65C64.5335 39.05 65.2501 38.75 66.1168 38.75ZM56.0168 61C57.4835 61 58.7668 60.6333 59.8668 59.9C60.9668 59.1667 61.8168 58.1667 62.4168 56.9C63.0501 55.6333 63.3668 54.2167 63.3668 52.65C63.3668 51.05 63.0501 49.6167 62.4168 48.35C61.8168 47.0833 60.9668 46.0833 59.8668 45.35C58.7668 44.6167 57.4835 44.25 56.0168 44.25C54.5835 44.25 53.3168 44.6167 52.2168 45.35C51.1168 46.0833 50.2501 47.0833 49.6168 48.35C49.0168 49.6167 48.7168 51.05 48.7168 52.65C48.7168 54.2167 49.0168 55.6333 49.6168 56.9C50.2501 58.1667 51.1168 59.1667 52.2168 59.9C53.3168 60.6333 54.5835 61 56.0168 61ZM78.6133 66C77.7466 66 77.0299 65.7167 76.4633 65.15C75.8966 64.55 75.6133 63.8167 75.6133 62.95V42.3C75.6133 41.4333 75.8966 40.7167 76.4633 40.15C77.0299 39.55 77.7466 39.25 78.6133 39.25C79.4799 39.25 80.1966 39.55 80.7633 40.15C81.3299 40.7167 81.6133 41.4333 81.6133 42.3V47L81.2633 43.65C81.6299 42.85 82.0966 42.15 82.6633 41.55C83.2633 40.9167 83.9299 40.4 84.6633 40C85.3966 39.5667 86.1799 39.25 87.0133 39.05C87.8466 38.85 88.6799 38.75 89.5133 38.75C90.5133 38.75 91.3466 39.0333 92.0133 39.6C92.7133 40.1667 93.0633 40.8333 93.0633 41.6C93.0633 42.7 92.7799 43.5 92.2133 44C91.6466 44.4667 91.0299 44.7 90.3633 44.7C89.7299 44.7 89.1466 44.5833 88.6133 44.35C88.1133 44.1167 87.5299 44 86.8633 44C86.2633 44 85.6466 44.15 85.0133 44.45C84.4133 44.7167 83.8466 45.15 83.3133 45.75C82.8133 46.35 82.3966 47.1 82.0633 48C81.7633 48.8667 81.6133 49.9 81.6133 51.1V62.95C81.6133 63.8167 81.3299 64.55 80.7633 65.15C80.1966 65.7167 79.4799 66 78.6133 66ZM117.143 39.25C118.01 39.25 118.726 39.55 119.293 40.15C119.86 40.7167 120.143 41.4333 120.143 42.3V63.55C120.143 66.6167 119.56 69.05 118.393 70.85C117.26 72.6833 115.726 74 113.793 74.8C111.86 75.6 109.693 76 107.293 76C106.226 76 105.093 75.9167 103.893 75.75C102.693 75.5833 101.71 75.3333 100.943 75C99.943 74.5667 99.243 74.0167 98.843 73.35C98.4763 72.7167 98.4096 72.0333 98.643 71.3C98.943 70.3333 99.4263 69.6667 100.093 69.3C100.76 68.9667 101.46 68.9333 102.193 69.2C102.726 69.3667 103.426 69.6167 104.293 69.95C105.16 70.3167 106.16 70.5 107.293 70.5C108.826 70.5 110.093 70.2833 111.093 69.85C112.126 69.45 112.893 68.75 113.393 67.75C113.926 66.7833 114.193 65.45 114.193 63.75V60.4L115.243 61.6C114.676 62.7 113.96 63.6167 113.093 64.35C112.26 65.05 111.26 65.5833 110.093 65.95C108.926 66.3167 107.593 66.5 106.093 66.5C104.326 66.5 102.776 66.1 101.443 65.3C100.143 64.4667 99.1263 63.3333 98.393 61.9C97.6596 60.4333 97.293 58.7667 97.293 56.9V42.3C97.293 41.4333 97.5763 40.7167 98.143 40.15C98.7096 39.55 99.4263 39.25 100.293 39.25C101.16 39.25 101.876 39.55 102.443 40.15C103.01 40.7167 103.293 41.4333 103.293 42.3V55.1C103.293 57.2667 103.76 58.8 104.693 59.7C105.66 60.5667 106.993 61 108.693 61C109.86 61 110.843 60.7833 111.643 60.35C112.443 59.8833 113.06 59.2167 113.493 58.35C113.926 57.45 114.143 56.3667 114.143 55.1V42.3C114.143 41.4333 114.426 40.7167 114.993 40.15C115.56 39.55 116.276 39.25 117.143 39.25Z" fill="#312A2A"/>
</svg>
